<svg width="32" height="32" fill="none" xmlns="http://www.w3.org/2000/svg"><defs><clipPath id="clip156_617"><path id="32px/mail" fill="#fff" fill-opacity="0" d="M0 0h32v32H0z"/></clipPath></defs><path id="32px/mail" fill="#FFF" fill-opacity="0" d="M0 0h32v32H0z"/><g clip-path="url(#clip156_617)"><path id="Vector" d="M5.333 26.666a2.568 2.568 0 01-1.884-.783A2.561 2.561 0 012.667 24V8c0-.733.26-1.361.784-1.884a2.561 2.561 0 011.882-.783h21.333c.734 0 1.362.261 1.884.784.523.523.784 1.15.783 1.883v16a2.57 2.57 0 01-.784 1.884 2.564 2.564 0 01-1.883.782H5.334zM16 17.334L5.333 10.667V24h21.333V10.666L16 17.334zm0-2.666L26.666 8H5.334L16 14.666zm-10.667-4V8v16-13.334z" fill="#F8F5F4" fill-opacity="1" fill-rule="nonzero"/></g></svg>