<svg width="26.667" height="21.333" viewBox="0 0 26.666 21.333" fill="none" xmlns="http://www.w3.org/2000/svg"><path id="Vector" d="M2.667 21.333a2.568 2.568 0 01-1.884-.784A2.561 2.561 0 010 18.667v-16C0 1.933.261 1.305.784.783A2.561 2.561 0 012.666 0H24c.733 0 1.361.261 1.884.784.523.523.784 1.15.782 1.883v16a2.57 2.57 0 01-.783 1.884 2.564 2.564 0 01-1.883.782H2.666zM13.334 12L2.666 5.333v13.334H24V5.333L13.334 12zm0-2.667L24 2.667H2.666l10.668 6.666zm-10.668-4V2.667v16V5.333z" fill="#F8F5F4" fill-opacity="1" fill-rule="nonzero"/></svg>