<svg width="13.333" height="10.667" viewBox="0 0 13.334 10.667" fill="none" xmlns="http://www.w3.org/2000/svg"><path id="Vector" d="M1.333 10.667c-.366 0-.68-.131-.942-.392A1.282 1.282 0 010 9.333v-8C0 .967.13.653.392.391A1.28 1.28 0 011.333 0H12c.367 0 .68.13.942.392.261.261.392.575.392.941v8c0 .367-.131.68-.393.942a1.282 1.282 0 01-.941.392H1.334zM6.667 6L1.333 2.667v6.666H12V2.667L6.667 6zm0-1.333L12 1.333H1.334l5.332 3.334zm-5.333-2V1.333v8-6.666z" fill="#4F8FF0" fill-opacity="1" fill-rule="nonzero"/></svg>