<svg width="50.118" height="50.499" fill="none" xmlns="http://www.w3.org/2000/svg"><path id="Vector" d="M47.377 0l-11.01 3.202L40.825.185c-2.815.636-6.37 1.88-10.84 3.887l-7.293 7.605 2.589-5.312c-2.503 1.392-5.156 3.217-7.713 5.355l-1.697 6.907-.366-5.113c-2.524 2.32-4.898 4.898-6.864 7.616-2.066 2.847-3.68 5.854-4.49 8.851l-3.02-2.02a14.593 14.593 0 002.48 6.79L0 33.645c.82 2.524 2.163 4.157 4.431 5.478-1.27 3.577-1.867 7.316-2.507 11.043l1.976.333C6.193 27.65 22.37 13.084 36.99 6.63l.741 1.867C24.658 14.352 14.496 24.234 9.178 38.478a22.215 22.215 0 005.608-.676l.526-6.542 1.407 5.962a17.058 17.058 0 003.201-1.547l-2.223-4.673 3.523 3.738c.86-.687 1.569-1.46 2.106-2.31 3.265-5.102 6.681-10.172 13.406-14.415l-4.91-1.74 7.531.225c1.225-.623 2.514-1.386 3.491-2.105l-5.339-.43 8.025-1.89a23.998 23.998 0 001.73-1.934c1.858-2.357 3.114-4.81 2.814-7.042a3.648 3.648 0 00-1.89-2.753A5.848 5.848 0 0047.376 0z" fill="#222" fill-opacity="1" fill-rule="nonzero"/></svg>